<?xml version="1.0" standalone="no"?>
<!DOCTYPE svg PUBLIC "-//W3C//DTD SVG 20010904//EN"
 "http://www.w3.org/TR/2001/REC-SVG-20010904/DTD/svg10.dtd">
<svg version="1.0" xmlns="http://www.w3.org/2000/svg"
 width="2048.000000pt" height="2048.000000pt" viewBox="0 0 2048.000000 2048.000000"
 preserveAspectRatio="xMidYMid meet">
<metadata>
Created by potrace 1.11, written by Peter Selinger 2001-2013
</metadata>
<g transform="translate(0.000000,2048.000000) scale(0.100000,-0.100000)"
fill="#000000" stroke="none">
<path d="M14915 18419 c-456 -185 -1146 -466 -1400 -570 -1347 -550 -2078
-849 -2405 -981 -571 -231 -620 -252 -1100 -448 -239 -98 -637 -260 -885 -360
-409 -166 -1552 -633 -2035 -832 -231 -95 -1825 -747 -1922 -786 -66 -26 -83
-44 -53 -56 21 -8 19 -23 -6 -29 -16 -4 -19 -11 -14 -26 4 -15 2 -21 -9 -21
-28 0 -28 -22 0 -46 l29 -23 -33 -13 c-39 -15 -40 -25 -7 -40 31 -14 31 -22 0
-36 -30 -14 -32 -28 -5 -42 14 -8 19 -17 15 -30 -4 -13 1 -22 15 -30 11 -6 20
-17 20 -24 0 -12 376 -167 2660 -1096 393 -160 769 -313 835 -340 66 -27 453
-184 860 -350 407 -165 783 -319 835 -340 52 -22 428 -175 835 -340 717 -292
1070 -435 2625 -1068 404 -165 790 -321 857 -348 68 -27 123 -52 123 -55 0 -9
-653 -540 -1760 -1433 -157 -126 -319 -257 -360 -291 -41 -34 -136 -111 -210
-170 -74 -60 -198 -160 -275 -223 -77 -62 -446 -359 -819 -660 -373 -301 -729
-588 -790 -637 -109 -89 -1180 -952 -1707 -1376 -258 -208 -747 -601 -1074
-865 -88 -71 -299 -242 -470 -379 -697 -561 -1449 -1166 -1590 -1280 -223
-181 -379 -304 -381 -302 -1 1 -4 1117 -8 2479 l-6 2478 22 5 c13 2 113 21
223 41 110 20 203 41 206 47 4 5 15 7 25 3 9 -4 20 -3 23 2 3 5 204 44 446 86
603 106 1049 187 1054 192 9 8 -32 3 -181 -21 -161 -26 -230 -31 -138 -10 85
20 40 17 -93 -5 -66 -12 -127 -20 -135 -18 -9 2 123 27 294 57 170 29 480 85
689 122 209 38 504 92 655 119 1096 196 1099 197 1066 199 -11 0 -292 -44
-624 -99 -333 -55 -610 -99 -615 -97 -5 1 76 18 179 36 1163 202 1526 268
1482 270 -10 1 -77 -8 -149 -20 -72 -11 -132 -19 -135 -17 -4 5 201 41 1281
228 499 87 574 101 581 111 7 13 -27 11 -131 -6 -97 -16 -169 -19 -105 -5 19
4 90 18 158 30 95 17 122 26 118 36 -4 10 2 14 19 14 28 0 29 3 15 30 -17 31
-56 31 -238 -1 -97 -17 -229 -39 -292 -49 -109 -17 -306 -50 -630 -105 -155
-26 -792 -132 -1290 -215 -168 -28 -370 -62 -450 -75 -80 -14 -280 -47 -445
-75 -279 -46 -484 -80 -1245 -209 -737 -125 -1267 -214 -1405 -237 -82 -13
-200 -34 -261 -45 l-112 -21 -6 -46 c-4 -29 -14 -53 -26 -62 -19 -15 -20 -49
-34 -1285 -18 -1452 -33 -2827 -41 -3705 -5 -597 -5 -605 15 -618 11 -7 20
-21 20 -32 0 -10 9 -24 20 -30 11 -6 20 -17 20 -25 0 -7 9 -16 19 -20 15 -4
78 40 263 188 134 106 430 341 658 522 228 181 773 613 1210 960 829 658 1629
1293 2420 1920 256 203 562 445 680 539 118 95 364 289 545 433 1102 874 1260
999 1825 1448 484 385 469 373 1730 1372 152 120 370 292 485 383 216 170 335
275 335 296 0 6 7 17 15 24 9 7 13 20 10 28 -3 9 8 32 25 54 17 21 29 42 26
46 -3 5 8 25 24 44 17 20 28 43 24 51 -7 19 -30 30 -614 267 -272 110 -538
219 -590 240 -52 21 -268 109 -480 195 -408 165 -546 222 -700 285 -52 21
-268 109 -480 195 -212 85 -428 173 -480 195 -52 21 -318 129 -590 240 -272
110 -549 223 -615 250 -66 27 -293 119 -505 205 -212 86 -428 174 -480 195
-52 22 -315 129 -585 238 -269 110 -753 306 -1075 437 -322 131 -805 327
-1075 436 -269 110 -533 217 -585 239 -72 29 -677 276 -890 362 l-25 10 35 15
c34 14 861 358 2035 846 1882 782 2048 851 2075 868 39 24 -60 -11 -263 -92
-121 -49 -222 -87 -224 -85 -2 1 119 54 269 116 1286 533 1984 827 2120 890
15 7 25 18 21 23 -4 6 0 8 11 4 9 -4 15 -3 12 1 -3 4 187 88 422 187 235 98
454 192 487 208 33 17 89 45 125 63 36 18 297 129 580 247 660 276 761 319
756 324 -2 3 -37 -7 -76 -21 -189 -69 -19 8 470 211 58 24 157 69 220 100 129
63 503 223 508 218 3 -3 9 -407 27 -1805 9 -754 17 -1070 26 -1070 5 0 10 39
11 88 1 66 3 73 5 30 4 -64 28 -98 39 -55 4 17 11 24 20 20 12 -4 14 201 15
1433 0 792 2 1459 3 1484 3 57 -10 86 -43 98 -14 6 -33 12 -41 15 -8 3 -181
-62 -385 -144z m-5625 -2679 c-8 -5 -19 -10 -25 -10 -5 0 -3 5 5 10 8 5 20 10
25 10 6 0 3 -5 -5 -10z m-3351 -1711 c321 -130 395 -160 649 -264 51 -21 91
-39 89 -41 -3 -3 -100 35 -452 179 -88 36 -254 103 -370 150 -250 102 -283
116 -271 117 5 0 165 -63 355 -141z m-337 9 c70 -29 126 -53 124 -55 -4 -4
-278 106 -286 115 -7 8 20 -2 162 -60z m269 -203 c305 -124 597 -243 649 -265
271 -111 406 -165 860 -350 272 -110 538 -218 590 -240 52 -21 367 -150 700
-285 333 -135 659 -268 725 -295 66 -27 354 -144 640 -260 286 -116 552 -224
590 -240 91 -38 256 -105 725 -295 212 -86 428 -174 480 -195 215 -88 343
-140 945 -385 347 -140 673 -273 725 -295 52 -21 329 -134 615 -250 642 -261
683 -277 720 -296 57 -27 -15 -4 -125 42 -58 23 -278 113 -490 199 -212 86
-428 174 -480 195 -52 21 -318 129 -590 240 -272 110 -538 218 -590 240 -52
21 -318 129 -590 240 -272 110 -767 312 -1100 447 -333 135 -825 335 -1095
445 -269 109 -533 217 -585 238 -52 22 -318 129 -590 240 -272 110 -538 218
-590 240 -52 21 -327 133 -610 248 -283 115 -645 262 -805 327 -381 155 -661
269 -985 400 -146 59 -276 113 -290 121 -76 41 52 -8 551 -211z m-14 99 c51
-20 91 -39 89 -41 -4 -5 -197 74 -206 84 -6 8 4 4 117 -43z m133 -54 c8 -5 11
-10 5 -10 -5 0 -17 5 -25 10 -8 5 -10 10 -5 10 6 0 17 -5 25 -10z m88 -35 c24
-10 41 -19 39 -22 -3 -2 -29 8 -58 22 -59 27 -50 28 19 0z m82 -35 c8 -5 11
-10 5 -10 -5 0 -17 5 -25 10 -8 5 -10 10 -5 10 6 0 17 -5 25 -10z m70 -26 c23
-9 39 -18 37 -20 -2 -3 -24 4 -48 15 -54 24 -45 27 11 5z m118 -49 c24 -10 41
-19 39 -22 -3 -2 -29 8 -58 22 -59 27 -50 28 19 0z m749 -177 c205 -84 371
-153 369 -155 -4 -4 -768 306 -776 315 -8 9 17 -1 407 -160z m-425 45 c131
-53 236 -98 234 -100 -4 -4 -498 196 -506 205 -8 8 15 -1 272 -105z m341 -138
c37 -15 66 -29 64 -31 -4 -5 -148 53 -156 63 -7 7 1 5 92 -32z m107 -45 c8 -5
11 -10 5 -10 -5 0 -17 5 -25 10 -8 5 -10 10 -5 10 6 0 17 -5 25 -10z m50 -20
c8 -5 11 -10 5 -10 -5 0 -17 5 -25 10 -8 5 -10 10 -5 10 6 0 17 -5 25 -10z
m427 -46 c51 -20 91 -39 89 -41 -4 -5 -197 74 -206 84 -6 8 4 4 117 -43z
m-314 1 c37 -15 66 -29 64 -31 -4 -5 -148 53 -156 63 -7 7 1 5 92 -32z m107
-45 c8 -5 11 -10 5 -10 -5 0 -17 5 -25 10 -8 5 -10 10 -5 10 6 0 17 -5 25 -10z
m420 -41 c55 -23 99 -44 97 -46 -4 -3 -197 75 -206 83 -11 10 16 1 109 -37z
m-370 21 c8 -5 11 -10 5 -10 -5 0 -17 5 -25 10 -8 5 -10 10 -5 10 6 0 17 -5
25 -10z m88 -35 c24 -10 41 -19 39 -22 -3 -2 -29 8 -58 22 -59 27 -50 28 19 0z
m127 -51 c36 -15 64 -28 62 -30 -3 -4 -128 44 -136 52 -10 9 12 3 74 -22z
m376 -25 c55 -23 98 -43 96 -45 -3 -4 -197 74 -206 82 -12 11 20 0 110 -37z
m-158 -64 c65 -26 116 -49 114 -51 -4 -5 -247 93 -256 102 -7 9 -4 8 142 -51z
m342 -11 c36 -15 64 -28 62 -30 -3 -4 -128 44 -136 52 -10 9 12 3 74 -22z
m218 -89 c65 -26 116 -49 114 -51 -4 -5 -247 93 -256 102 -7 9 -4 8 142 -51z
m-345 13 c29 -12 51 -23 48 -25 -5 -5 -136 47 -136 54 0 3 8 2 18 -2 9 -4 41
-16 70 -27z m130 -53 c24 -10 41 -19 39 -22 -3 -2 -29 8 -58 22 -59 27 -50 28
19 0z m430 -47 c29 -12 51 -23 48 -25 -5 -5 -136 47 -136 54 0 3 8 2 18 -2 9
-4 41 -16 70 -27z m-348 12 c8 -5 11 -10 5 -10 -5 0 -17 5 -25 10 -8 5 -10 10
-5 10 6 0 17 -5 25 -10z m50 -20 c8 -5 11 -10 5 -10 -5 0 -17 5 -25 10 -8 5
-10 10 -5 10 6 0 17 -5 25 -10z m50 -20 c8 -5 11 -10 5 -10 -5 0 -17 5 -25 10
-8 5 -10 10 -5 10 6 0 17 -5 25 -10z m378 -25 c24 -10 41 -19 39 -22 -3 -2
-29 8 -58 22 -59 27 -50 28 19 0z m-290 -10 c24 -10 41 -19 39 -22 -3 -2 -29
8 -58 22 -59 27 -50 28 19 0z m397 -36 c22 -10 29 -16 15 -13 -28 7 -80 33
-65 33 6 0 28 -9 50 -20z m-315 1 c8 -5 11 -10 5 -10 -5 0 -17 5 -25 10 -8 5
-10 10 -5 10 6 0 17 -5 25 -10z m50 -20 c8 -5 11 -10 5 -10 -5 0 -17 5 -25 10
-8 5 -10 10 -5 10 6 0 17 -5 25 -10z m340 -10 c8 -5 11 -10 5 -10 -5 0 -17 5
-25 10 -8 5 -10 10 -5 10 6 0 17 -5 25 -10z m-252 -25 c24 -10 41 -19 39 -22
-3 -2 -29 8 -58 22 -59 27 -50 28 19 0z m340 -10 c24 -10 41 -19 39 -22 -3 -2
-29 8 -58 22 -59 27 -50 28 19 0z m-258 -25 c8 -5 11 -10 5 -10 -5 0 -17 5
-25 10 -8 5 -10 10 -5 10 6 0 17 -5 25 -10z m643 -132 c163 -66 296 -123 294
-125 -4 -4 -619 246 -627 255 -8 8 13 0 333 -130z m-512 81 c55 -23 98 -43 96
-45 -3 -4 -197 74 -206 82 -12 11 20 0 110 -37z m184 -75 c36 -15 64 -28 62
-30 -3 -4 -128 44 -136 52 -10 9 12 3 74 -22z m105 -44 c8 -5 11 -10 5 -10 -5
0 -17 5 -25 10 -8 5 -10 10 -5 10 6 0 17 -5 25 -10z m50 -20 c8 -5 11 -10 5
-10 -5 0 -17 5 -25 10 -8 5 -10 10 -5 10 6 0 17 -5 25 -10z m50 -20 c8 -5 11
-10 5 -10 -5 0 -17 5 -25 10 -8 5 -10 10 -5 10 6 0 17 -5 25 -10z m88 -35 c24
-10 41 -19 39 -22 -3 -2 -29 8 -58 22 -59 27 -50 28 19 0z m430 -47 c29 -12
51 -23 48 -25 -5 -5 -136 47 -136 54 0 3 8 2 18 -2 9 -4 41 -16 70 -27z m-348
12 c8 -5 11 -10 5 -10 -5 0 -17 5 -25 10 -8 5 -10 10 -5 10 6 0 17 -5 25 -10z
m50 -20 c8 -5 11 -10 5 -10 -5 0 -17 5 -25 10 -8 5 -10 10 -5 10 6 0 17 -5 25
-10z m50 -20 c8 -5 11 -10 5 -10 -5 0 -17 5 -25 10 -8 5 -10 10 -5 10 6 0 17
-5 25 -10z m378 -25 c24 -10 41 -19 39 -22 -3 -2 -29 8 -58 22 -59 27 -50 28
19 0z m-290 -10 c24 -10 41 -19 39 -22 -3 -2 -29 8 -58 22 -59 27 -50 28 19 0z
m372 -25 c8 -5 11 -10 5 -10 -5 0 -17 5 -25 10 -8 5 -10 10 -5 10 6 0 17 -5
25 -10z m-290 -10 c8 -5 11 -10 5 -10 -5 0 -17 5 -25 10 -8 5 -10 10 -5 10 6
0 17 -5 25 -10z m340 -10 c8 -5 11 -10 5 -10 -5 0 -17 5 -25 10 -8 5 -10 10
-5 10 6 0 17 -5 25 -10z m-290 -10 c8 -5 11 -10 5 -10 -5 0 -17 5 -25 10 -8 5
-10 10 -5 10 6 0 17 -5 25 -10z m340 -10 c8 -5 11 -10 5 -10 -5 0 -17 5 -25
10 -8 5 -10 10 -5 10 6 0 17 -5 25 -10z m-290 -10 c8 -5 11 -10 5 -10 -5 0
-17 5 -25 10 -8 5 -10 10 -5 10 6 0 17 -5 25 -10z m378 -25 c24 -10 41 -19 39
-22 -3 -2 -29 8 -58 22 -59 27 -50 28 19 0z m-290 -10 c24 -10 41 -19 39 -22
-3 -2 -29 8 -58 22 -59 27 -50 28 19 0z m372 -25 c8 -5 11 -10 5 -10 -5 0 -17
5 -25 10 -8 5 -10 10 -5 10 6 0 17 -5 25 -10z m-290 -10 c8 -5 11 -10 5 -10
-5 0 -17 5 -25 10 -8 5 -10 10 -5 10 6 0 17 -5 25 -10z m360 -16 c23 -9 39
-18 37 -20 -2 -3 -24 4 -48 15 -54 24 -45 27 11 5z m-310 -4 c8 -5 11 -10 5
-10 -5 0 -17 5 -25 10 -8 5 -10 10 -5 10 6 0 17 -5 25 -10z m50 -20 c8 -5 11
-10 5 -10 -5 0 -17 5 -25 10 -8 5 -10 10 -5 10 6 0 17 -5 25 -10z m378 -25
c24 -10 41 -19 39 -22 -3 -2 -29 8 -58 22 -59 27 -50 28 19 0z m-318 0 c14 -8
21 -14 15 -14 -5 0 -21 6 -35 14 -14 8 -20 14 -15 14 6 0 21 -6 35 -14z m60
-25 c8 -5 11 -10 5 -10 -5 0 -17 5 -25 10 -8 5 -10 10 -5 10 6 0 17 -5 25 -10z
m385 -26 c36 -15 64 -28 62 -30 -3 -4 -128 44 -136 52 -10 9 12 3 74 -22z
m-295 -9 c14 -8 21 -14 15 -14 -5 0 -21 6 -35 14 -14 8 -20 14 -15 14 6 0 21
-6 35 -14z m60 -25 c8 -5 11 -10 5 -10 -5 0 -17 5 -25 10 -8 5 -10 10 -5 10 6
0 17 -5 25 -10z m398 -32 c29 -12 51 -23 48 -25 -5 -5 -136 47 -136 54 0 3 8
2 18 -2 9 -4 41 -16 70 -27z m-348 12 c8 -5 11 -10 5 -10 -5 0 -17 5 -25 10
-8 5 -10 10 -5 10 6 0 17 -5 25 -10z m100 -40 c8 -5 11 -10 5 -10 -5 0 -17 5
-25 10 -8 5 -10 10 -5 10 6 0 17 -5 25 -10z m378 -25 c24 -10 41 -19 39 -22
-3 -2 -29 8 -58 22 -59 27 -50 28 19 0z m-318 0 c14 -8 21 -14 15 -14 -5 0
-21 6 -35 14 -14 8 -20 14 -15 14 6 0 21 -6 35 -14z m60 -25 c8 -5 11 -10 5
-10 -5 0 -17 5 -25 10 -8 5 -10 10 -5 10 6 0 17 -5 25 -10z m365 -21 c22 -10
29 -16 15 -13 -28 7 -80 33 -65 33 6 0 28 -9 50 -20z m-315 1 c8 -5 11 -10 5
-10 -5 0 -17 5 -25 10 -8 5 -10 10 -5 10 6 0 17 -5 25 -10z m50 -20 c8 -5 11
-10 5 -10 -5 0 -17 5 -25 10 -8 5 -10 10 -5 10 6 0 17 -5 25 -10z m340 -10 c8
-5 11 -10 5 -10 -5 0 -17 5 -25 10 -8 5 -10 10 -5 10 6 0 17 -5 25 -10z m-290
-10 c8 -5 11 -10 5 -10 -5 0 -17 5 -25 10 -8 5 -10 10 -5 10 6 0 17 -5 25 -10z
m378 -25 c24 -10 41 -19 39 -22 -3 -2 -29 8 -58 22 -59 27 -50 28 19 0z m-318
0 c14 -8 21 -14 15 -14 -5 0 -21 6 -35 14 -14 8 -20 14 -15 14 6 0 21 -6 35
-14z m60 -25 c8 -5 11 -10 5 -10 -5 0 -17 5 -25 10 -8 5 -10 10 -5 10 6 0 17
-5 25 -10z m340 -10 c8 -5 11 -10 5 -10 -5 0 -17 5 -25 10 -8 5 -10 10 -5 10
6 0 17 -5 25 -10z m-290 -10 c8 -5 11 -10 5 -10 -5 0 -17 5 -25 10 -8 5 -10
10 -5 10 6 0 17 -5 25 -10z m340 -10 c8 -5 11 -10 5 -10 -5 0 -17 5 -25 10 -8
5 -10 10 -5 10 6 0 17 -5 25 -10z m-290 -10 c8 -5 11 -10 5 -10 -5 0 -17 5
-25 10 -8 5 -10 10 -5 10 6 0 17 -5 25 -10z m340 -10 c8 -5 11 -10 5 -10 -5 0
-17 5 -25 10 -8 5 -10 10 -5 10 6 0 17 -5 25 -10z m-290 -10 c8 -5 11 -10 5
-10 -5 0 -17 5 -25 10 -8 5 -10 10 -5 10 6 0 17 -5 25 -10z m350 -15 c14 -8
21 -14 15 -14 -5 0 -21 6 -35 14 -14 8 -20 14 -15 14 6 0 21 -6 35 -14z m-290
-10 c14 -8 21 -14 15 -14 -5 0 -21 6 -35 14 -14 8 -20 14 -15 14 6 0 21 -6 35
-14z m350 -15 c8 -5 11 -10 5 -10 -5 0 -17 5 -25 10 -8 5 -10 10 -5 10 6 0 17
-5 25 -10z m-290 -10 c8 -5 11 -10 5 -10 -5 0 -17 5 -25 10 -8 5 -10 10 -5 10
6 0 17 -5 25 -10z m340 -10 c8 -5 11 -10 5 -10 -5 0 -17 5 -25 10 -8 5 -10 10
-5 10 6 0 17 -5 25 -10z m70 -26 c23 -9 39 -18 37 -20 -2 -3 -24 4 -48 15 -54
24 -45 27 11 5z m-310 -4 c8 -5 11 -10 5 -10 -5 0 -17 5 -25 10 -8 5 -10 10
-5 10 6 0 17 -5 25 -10z m50 -20 c8 -5 11 -10 5 -10 -5 0 -17 5 -25 10 -8 5
-10 10 -5 10 6 0 17 -5 25 -10z m350 -15 c14 -8 21 -14 15 -14 -5 0 -21 6 -35
14 -14 8 -20 14 -15 14 6 0 21 -6 35 -14z m-290 -10 c14 -8 21 -14 15 -14 -5
0 -21 6 -35 14 -14 8 -20 14 -15 14 6 0 21 -6 35 -14z m350 -15 c8 -5 11 -10
5 -10 -5 0 -17 5 -25 10 -8 5 -10 10 -5 10 6 0 17 -5 25 -10z m-250 -25 c14
-8 21 -14 15 -14 -5 0 -21 6 -35 14 -14 8 -20 14 -15 14 6 0 21 -6 35 -14z
m320 -1 c23 -9 39 -18 37 -20 -2 -3 -24 4 -48 15 -54 24 -45 27 11 5z m-260
-24 c8 -5 11 -10 5 -10 -5 0 -17 5 -25 10 -8 5 -10 10 -5 10 6 0 17 -5 25 -10z
m340 -10 c8 -5 11 -10 5 -10 -5 0 -17 5 -25 10 -8 5 -10 10 -5 10 6 0 17 -5
25 -10z m-290 -10 c8 -5 11 -10 5 -10 -5 0 -17 5 -25 10 -8 5 -10 10 -5 10 6
0 17 -5 25 -10z m365 -21 c22 -10 29 -16 15 -13 -28 7 -80 33 -65 33 6 0 28
-9 50 -20z m-265 -19 c8 -5 11 -10 5 -10 -5 0 -17 5 -25 10 -8 5 -10 10 -5 10
6 0 17 -5 25 -10z m340 -10 c8 -5 11 -10 5 -10 -5 0 -17 5 -25 10 -8 5 -10 10
-5 10 6 0 17 -5 25 -10z m-290 -10 c8 -5 11 -10 5 -10 -5 0 -17 5 -25 10 -8 5
-10 10 -5 10 6 0 17 -5 25 -10z m350 -15 c14 -8 21 -14 15 -14 -5 0 -21 6 -35
14 -14 8 -20 14 -15 14 6 0 21 -6 35 -14z m-280 -15 c8 -5 11 -10 5 -10 -5 0
-17 5 -25 10 -8 5 -10 10 -5 10 6 0 17 -5 25 -10z m365 -21 c22 -10 29 -16 15
-13 -28 7 -80 33 -65 33 6 0 28 -9 50 -20z m-315 1 c8 -5 11 -10 5 -10 -5 0
-17 5 -25 10 -8 5 -10 10 -5 10 6 0 17 -5 25 -10z m50 -20 c8 -5 11 -10 5 -10
-5 0 -17 5 -25 10 -8 5 -10 10 -5 10 6 0 17 -5 25 -10z m340 -10 c8 -5 11 -10
5 -10 -5 0 -17 5 -25 10 -8 5 -10 10 -5 10 6 0 17 -5 25 -10z m-290 -10 c8 -5
11 -10 5 -10 -5 0 -17 5 -25 10 -8 5 -10 10 -5 10 6 0 17 -5 25 -10z m340 -10
c8 -5 11 -10 5 -10 -5 0 -17 5 -25 10 -8 5 -10 10 -5 10 6 0 17 -5 25 -10z
m-290 -10 c8 -5 11 -10 5 -10 -5 0 -17 5 -25 10 -8 5 -10 10 -5 10 6 0 17 -5
25 -10z m350 -15 c14 -8 21 -14 15 -14 -5 0 -21 6 -35 14 -14 8 -20 14 -15 14
6 0 21 -6 35 -14z m-280 -15 c8 -5 11 -10 5 -10 -5 0 -17 5 -25 10 -8 5 -10
10 -5 10 6 0 17 -5 25 -10z m340 -10 c8 -5 11 -10 5 -10 -5 0 -17 5 -25 10 -8
5 -10 10 -5 10 6 0 17 -5 25 -10z m-290 -10 c8 -5 11 -10 5 -10 -5 0 -17 5
-25 10 -8 5 -10 10 -5 10 6 0 17 -5 25 -10z m340 -10 c8 -5 11 -10 5 -10 -5 0
-17 5 -25 10 -8 5 -10 10 -5 10 6 0 17 -5 25 -10z m-290 -10 c8 -5 11 -10 5
-10 -5 0 -17 5 -25 10 -8 5 -10 10 -5 10 6 0 17 -5 25 -10z m340 -10 c8 -5 11
-10 5 -10 -5 0 -17 5 -25 10 -8 5 -10 10 -5 10 6 0 17 -5 25 -10z m-290 -10
c8 -5 11 -10 5 -10 -5 0 -17 5 -25 10 -8 5 -10 10 -5 10 6 0 17 -5 25 -10z
m378 -25 c24 -10 41 -19 39 -22 -3 -2 -29 8 -58 22 -59 27 -50 28 19 0z m-318
0 c14 -8 21 -14 15 -14 -5 0 -21 6 -35 14 -14 8 -20 14 -15 14 6 0 21 -6 35
-14z m60 -25 c8 -5 11 -10 5 -10 -5 0 -17 5 -25 10 -8 5 -10 10 -5 10 6 0 17
-5 25 -10z m340 -10 c8 -5 11 -10 5 -10 -5 0 -17 5 -25 10 -8 5 -10 10 -5 10
6 0 17 -5 25 -10z m50 -20 c8 -5 11 -10 5 -10 -5 0 -17 5 -25 10 -8 5 -10 10
-5 10 6 0 17 -5 25 -10z m-290 -10 c8 -5 11 -10 5 -10 -5 0 -17 5 -25 10 -8 5
-10 10 -5 10 6 0 17 -5 25 -10z m340 -10 c8 -5 11 -10 5 -10 -5 0 -17 5 -25
10 -8 5 -10 10 -5 10 6 0 17 -5 25 -10z m-290 -10 c8 -5 11 -10 5 -10 -5 0
-17 5 -25 10 -8 5 -10 10 -5 10 6 0 17 -5 25 -10z m350 -15 c14 -8 21 -14 15
-14 -5 0 -21 6 -35 14 -14 8 -20 14 -15 14 6 0 21 -6 35 -14z m-300 -5 c8 -5
11 -10 5 -10 -5 0 -17 5 -25 10 -8 5 -10 10 -5 10 6 0 17 -5 25 -10z m360 -20
c8 -5 11 -10 5 -10 -5 0 -17 5 -25 10 -8 5 -10 10 -5 10 6 0 17 -5 25 -10z
m70 -26 c23 -9 39 -18 37 -20 -2 -3 -24 4 -48 15 -54 24 -45 27 11 5z m-260
-24 c8 -5 11 -10 5 -10 -5 0 -17 5 -25 10 -8 5 -10 10 -5 10 6 0 17 -5 25 -10z
m340 -10 c8 -5 11 -10 5 -10 -5 0 -17 5 -25 10 -8 5 -10 10 -5 10 6 0 17 -5
25 -10z m-290 -10 c8 -5 11 -10 5 -10 -5 0 -17 5 -25 10 -8 5 -10 10 -5 10 6
0 17 -5 25 -10z m350 -15 c14 -8 21 -14 15 -14 -5 0 -21 6 -35 14 -14 8 -20
14 -15 14 6 0 21 -6 35 -14z m90 -35 c8 -5 11 -10 5 -10 -5 0 -17 5 -25 10 -8
5 -10 10 -5 10 6 0 17 -5 25 -10z m60 -25 c14 -8 21 -14 15 -14 -5 0 -21 6
-35 14 -14 8 -20 14 -15 14 6 0 21 -6 35 -14z m-280 -15 c8 -5 11 -10 5 -10
-5 0 -17 5 -25 10 -8 5 -10 10 -5 10 6 0 17 -5 25 -10z m340 -10 c8 -5 11 -10
5 -10 -5 0 -17 5 -25 10 -8 5 -10 10 -5 10 6 0 17 -5 25 -10z m-290 -10 c8 -5
11 -10 5 -10 -5 0 -17 5 -25 10 -8 5 -10 10 -5 10 6 0 17 -5 25 -10z m340 -10
c8 -5 11 -10 5 -10 -5 0 -17 5 -25 10 -8 5 -10 10 -5 10 6 0 17 -5 25 -10z
m50 -20 c8 -5 11 -10 5 -10 -5 0 -17 5 -25 10 -8 5 -10 10 -5 10 6 0 17 -5 25
-10z m-290 -10 c8 -5 11 -10 5 -10 -5 0 -17 5 -25 10 -8 5 -10 10 -5 10 6 0
17 -5 25 -10z m340 -10 c8 -5 11 -10 5 -10 -5 0 -17 5 -25 10 -8 5 -10 10 -5
10 6 0 17 -5 25 -10z m-290 -10 c8 -5 11 -10 5 -10 -5 0 -17 5 -25 10 -8 5
-10 10 -5 10 6 0 17 -5 25 -10z m350 -15 c14 -8 21 -14 15 -14 -5 0 -21 6 -35
14 -14 8 -20 14 -15 14 6 0 21 -6 35 -14z m-280 -15 c8 -5 11 -10 5 -10 -5 0
-17 5 -25 10 -8 5 -10 10 -5 10 6 0 17 -5 25 -10z m340 -10 c8 -5 11 -10 5
-10 -5 0 -17 5 -25 10 -8 5 -10 10 -5 10 6 0 17 -5 25 -10z m-290 -10 c8 -5
11 -10 5 -10 -5 0 -17 5 -25 10 -8 5 -10 10 -5 10 6 0 17 -5 25 -10z m340 -10
c8 -5 11 -10 5 -10 -5 0 -17 5 -25 10 -8 5 -10 10 -5 10 6 0 17 -5 25 -10z
m-290 -10 c8 -5 11 -10 5 -10 -5 0 -17 5 -25 10 -8 5 -10 10 -5 10 6 0 17 -5
25 -10z m340 -10 c8 -5 11 -10 5 -10 -5 0 -17 5 -25 10 -8 5 -10 10 -5 10 6 0
17 -5 25 -10z m-290 -10 c8 -5 11 -10 5 -10 -5 0 -17 5 -25 10 -8 5 -10 10 -5
10 6 0 17 -5 25 -10z m340 -10 c8 -5 11 -10 5 -10 -5 0 -17 5 -25 10 -8 5 -10
10 -5 10 6 0 17 -5 25 -10z m-290 -10 c8 -5 11 -10 5 -10 -5 0 -17 5 -25 10
-8 5 -10 10 -5 10 6 0 17 -5 25 -10z m350 -15 c14 -8 21 -14 15 -14 -5 0 -21
6 -35 14 -14 8 -20 14 -15 14 6 0 21 -6 35 -14z m-280 -15 c8 -5 11 -10 5 -10
-5 0 -17 5 -25 10 -8 5 -10 10 -5 10 6 0 17 -5 25 -10z m340 -10 c8 -5 11 -10
5 -10 -5 0 -17 5 -25 10 -8 5 -10 10 -5 10 6 0 17 -5 25 -10z m-290 -10 c8 -5
11 -10 5 -10 -5 0 -17 5 -25 10 -8 5 -10 10 -5 10 6 0 17 -5 25 -10z m340 -10
c8 -5 11 -10 5 -10 -5 0 -17 5 -25 10 -8 5 -10 10 -5 10 6 0 17 -5 25 -10z
m50 -20 c8 -5 11 -10 5 -10 -5 0 -17 5 -25 10 -8 5 -10 10 -5 10 6 0 17 -5 25
-10z m-290 -10 c8 -5 11 -10 5 -10 -5 0 -17 5 -25 10 -8 5 -10 10 -5 10 6 0
17 -5 25 -10z m340 -10 c8 -5 11 -10 5 -10 -5 0 -17 5 -25 10 -8 5 -10 10 -5
10 6 0 17 -5 25 -10z m-290 -10 c8 -5 11 -10 5 -10 -5 0 -17 5 -25 10 -8 5
-10 10 -5 10 6 0 17 -5 25 -10z m360 -20 c8 -5 11 -10 5 -10 -5 0 -17 5 -25
10 -8 5 -10 10 -5 10 6 0 17 -5 25 -10z m50 -20 c8 -5 11 -10 5 -10 -5 0 -17
5 -25 10 -8 5 -10 10 -5 10 6 0 17 -5 25 -10z m100 -40 c8 -5 11 -10 5 -10 -5
0 -17 5 -25 10 -8 5 -10 10 -5 10 6 0 17 -5 25 -10z m-290 -10 c8 -5 11 -10 5
-10 -5 0 -17 5 -25 10 -8 5 -10 10 -5 10 6 0 17 -5 25 -10z m340 -10 c8 -5 11
-10 5 -10 -5 0 -17 5 -25 10 -8 5 -10 10 -5 10 6 0 17 -5 25 -10z m-290 -10
c8 -5 11 -10 5 -10 -5 0 -17 5 -25 10 -8 5 -10 10 -5 10 6 0 17 -5 25 -10z
m360 -20 c8 -5 11 -10 5 -10 -5 0 -17 5 -25 10 -8 5 -10 10 -5 10 6 0 17 -5
25 -10z m80 -30 c8 -5 11 -10 5 -10 -5 0 -17 5 -25 10 -8 5 -10 10 -5 10 6 0
17 -5 25 -10z m70 -30 c8 -5 11 -10 5 -10 -5 0 -17 5 -25 10 -8 5 -10 10 -5
10 6 0 17 -5 25 -10z m-290 -10 c8 -5 11 -10 5 -10 -5 0 -17 5 -25 10 -8 5
-10 10 -5 10 6 0 17 -5 25 -10z m340 -10 c8 -5 11 -10 5 -10 -5 0 -17 5 -25
10 -8 5 -10 10 -5 10 6 0 17 -5 25 -10z m100 -40 c8 -5 11 -10 5 -10 -5 0 -17
5 -25 10 -8 5 -10 10 -5 10 6 0 17 -5 25 -10z m-290 -10 c8 -5 11 -10 5 -10
-5 0 -17 5 -25 10 -8 5 -10 10 -5 10 6 0 17 -5 25 -10z m340 -10 c8 -5 11 -10
5 -10 -5 0 -17 5 -25 10 -8 5 -10 10 -5 10 6 0 17 -5 25 -10z m70 -30 c8 -5
11 -10 5 -10 -5 0 -17 5 -25 10 -8 5 -10 10 -5 10 6 0 17 -5 25 -10z m-290
-10 c8 -5 11 -10 5 -10 -5 0 -17 5 -25 10 -8 5 -10 10 -5 10 6 0 17 -5 25 -10z
m340 -10 c8 -5 11 -10 5 -10 -5 0 -17 5 -25 10 -8 5 -10 10 -5 10 6 0 17 -5
25 -10z m50 -20 c8 -5 11 -10 5 -10 -5 0 -17 5 -25 10 -8 5 -10 10 -5 10 6 0
17 -5 25 -10z m-290 -10 c8 -5 11 -10 5 -10 -5 0 -17 5 -25 10 -8 5 -10 10 -5
10 6 0 17 -5 25 -10z m340 -10 c8 -5 11 -10 5 -10 -5 0 -17 5 -25 10 -8 5 -10
10 -5 10 6 0 17 -5 25 -10z m-290 -10 c8 -5 11 -10 5 -10 -5 0 -17 5 -25 10
-8 5 -10 10 -5 10 6 0 17 -5 25 -10z m340 -10 c8 -5 11 -10 5 -10 -5 0 -17 5
-25 10 -8 5 -10 10 -5 10 6 0 17 -5 25 -10z m-220 -40 c8 -5 11 -10 5 -10 -5
0 -17 5 -25 10 -8 5 -10 10 -5 10 6 0 17 -5 25 -10z m100 -40 c8 -5 11 -10 5
-10 -5 0 -17 5 -25 10 -8 5 -10 10 -5 10 6 0 17 -5 25 -10z m-3717 -1627 c-7
-2 -21 -2 -30 0 -10 3 -4 5 12 5 17 0 24 -2 18 -5z m-60 -10 c-7 -2 -19 -2
-25 0 -7 3 -2 5 12 5 14 0 19 -2 13 -5z m-70 -10 c-7 -2 -19 -2 -25 0 -7 3 -2
5 12 5 14 0 19 -2 13 -5z m-56 -9 c-3 -3 -12 -4 -19 -1 -8 3 -5 6 6 6 11 1 17
-2 13 -5z m-1424 -291 c-7 -2 -19 -2 -25 0 -7 3 -2 5 12 5 14 0 19 -2 13 -5z
m-60 -10 c-7 -2 -19 -2 -25 0 -7 3 -2 5 12 5 14 0 19 -2 13 -5z m-66 -9 c-3
-3 -12 -4 -19 -1 -8 3 -5 6 6 6 11 1 17 -2 13 -5z m-60 -10 c-3 -3 -12 -4 -19
-1 -8 3 -5 6 6 6 11 1 17 -2 13 -5z m-60 -10 c-3 -3 -12 -4 -19 -1 -8 3 -5 6
6 6 11 1 17 -2 13 -5z m-1134 -231 c-7 -2 -19 -2 -25 0 -7 3 -2 5 12 5 14 0
19 -2 13 -5z m-56 -9 c-3 -3 -12 -4 -19 -1 -8 3 -5 6 6 6 11 1 17 -2 13 -5z
m-60 -10 c-3 -3 -12 -4 -19 -1 -8 3 -5 6 6 6 11 1 17 -2 13 -5z m-54 -11 c-7
-2 -21 -2 -30 0 -10 3 -4 5 12 5 17 0 24 -2 18 -5z m-60 -10 c-7 -2 -21 -2
-30 0 -10 3 -4 5 12 5 17 0 24 -2 18 -5z m-60 -10 c-7 -2 -19 -2 -25 0 -7 3
-2 5 12 5 14 0 19 -2 13 -5z m-60 -10 c-7 -2 -19 -2 -25 0 -7 3 -2 5 12 5 14
0 19 -2 13 -5z m-920 -230 c-7 -2 -19 -2 -25 0 -7 3 -2 5 12 5 14 0 19 -2 13
-5z m-190 -10 c-7 -2 -21 -2 -30 0 -10 3 -4 5 12 5 17 0 24 -2 18 -5z m134 1
c-3 -3 -12 -4 -19 -1 -8 3 -5 6 6 6 11 1 17 -2 13 -5z m-194 -11 c-7 -2 -21
-2 -30 0 -10 3 -4 5 12 5 17 0 24 -2 18 -5z m-70 -10 c-7 -2 -19 -2 -25 0 -7
3 -2 5 12 5 14 0 19 -2 13 -5z m-56 -9 c-3 -3 -12 -4 -19 -1 -8 3 -5 6 6 6 11
1 17 -2 13 -5z m-60 -10 c-3 -3 -12 -4 -19 -1 -8 3 -5 6 6 6 11 1 17 -2 13 -5z"/>
<path d="M9830 15950 c-8 -5 -10 -10 -5 -10 6 0 17 5 25 10 8 5 11 10 5 10 -5
0 -17 -5 -25 -10z"/>
</g>
</svg>
